<svg width="77" height="40" viewBox="0 0 77 40" fill="none" xmlns="http://www.w3.org/2000/svg">
<path d="M4.59961 0.46875L1.04297 9.73242H0.111328L3.67383 0.46875H4.59961ZM8.24414 0.46875L4.6875 9.73242H3.75586L7.31836 0.46875H8.24414ZM14.8125 6.42188L16.5059 0.46875H17.3262L16.8516 2.7832L15.0293 9H14.2148L14.8125 6.42188ZM13.0605 0.46875L14.4082 6.30469L14.8125 9H14.0039L11.9355 0.46875H13.0605ZM19.5176 6.29883L20.8359 0.46875H21.9668L19.9043 9H19.0957L19.5176 6.29883ZM17.4492 0.46875L19.0957 6.42188L19.6934 9H18.8789L17.1211 2.7832L16.6406 0.46875H17.4492ZM25.5 9.11719C25.0586 9.11719 24.6582 9.04297 24.2988 8.89453C23.9434 8.74219 23.6367 8.5293 23.3789 8.25586C23.125 7.98242 22.9297 7.6582 22.793 7.2832C22.6562 6.9082 22.5879 6.49805 22.5879 6.05273V5.80664C22.5879 5.29102 22.6641 4.83203 22.8164 4.42969C22.9688 4.02344 23.1758 3.67969 23.4375 3.39844C23.6992 3.11719 23.9961 2.9043 24.3281 2.75977C24.6602 2.61523 25.0039 2.54297 25.3594 2.54297C25.8125 2.54297 26.2031 2.62109 26.5312 2.77734C26.8633 2.93359 27.1348 3.15234 27.3457 3.43359C27.5566 3.71094 27.7129 4.03906 27.8145 4.41797C27.916 4.79297 27.9668 5.20312 27.9668 5.64844V6.13477H23.2324V5.25H26.8828V5.16797C26.8672 4.88672 26.8086 4.61328 26.707 4.34766C26.6094 4.08203 26.4531 3.86328 26.2383 3.69141C26.0234 3.51953 25.7305 3.43359 25.3594 3.43359C25.1133 3.43359 24.8867 3.48633 24.6797 3.5918C24.4727 3.69336 24.2949 3.8457 24.1465 4.04883C23.998 4.25195 23.8828 4.5 23.8008 4.79297C23.7188 5.08594 23.6777 5.42383 23.6777 5.80664V6.05273C23.6777 6.35352 23.7188 6.63672 23.8008 6.90234C23.8867 7.16406 24.0098 7.39453 24.1699 7.59375C24.334 7.79297 24.5312 7.94922 24.7617 8.0625C24.9961 8.17578 25.2617 8.23242 25.5586 8.23242C25.9414 8.23242 26.2656 8.1543 26.5312 7.99805C26.7969 7.8418 27.0293 7.63281 27.2285 7.37109L27.8848 7.89258C27.748 8.09961 27.5742 8.29688 27.3633 8.48438C27.1523 8.67188 26.8926 8.82422 26.584 8.94141C26.2793 9.05859 25.918 9.11719 25.5 9.11719ZM30.4102 0V9H29.3203V0H30.4102ZM34.6875 8.22656C34.9453 8.22656 35.1836 8.17383 35.4023 8.06836C35.6211 7.96289 35.8008 7.81836 35.9414 7.63477C36.082 7.44727 36.1621 7.23438 36.1816 6.99609H37.2129C37.1934 7.37109 37.0664 7.7207 36.832 8.04492C36.6016 8.36523 36.2988 8.625 35.9238 8.82422C35.5488 9.01953 35.1367 9.11719 34.6875 9.11719C34.2109 9.11719 33.7949 9.0332 33.4395 8.86523C33.0879 8.69727 32.7949 8.4668 32.5605 8.17383C32.3301 7.88086 32.1562 7.54492 32.0391 7.16602C31.9258 6.7832 31.8691 6.37891 31.8691 5.95312V5.70703C31.8691 5.28125 31.9258 4.87891 32.0391 4.5C32.1562 4.11719 32.3301 3.7793 32.5605 3.48633C32.7949 3.19336 33.0879 2.96289 33.4395 2.79492C33.7949 2.62695 34.2109 2.54297 34.6875 2.54297C35.1836 2.54297 35.6172 2.64453 35.9883 2.84766C36.3594 3.04688 36.6504 3.32031 36.8613 3.66797C37.0762 4.01172 37.1934 4.40234 37.2129 4.83984H36.1816C36.1621 4.57812 36.0879 4.3418 35.959 4.13086C35.834 3.91992 35.6621 3.75195 35.4434 3.62695C35.2285 3.49805 34.9766 3.43359 34.6875 3.43359C34.3555 3.43359 34.0762 3.5 33.8496 3.63281C33.627 3.76172 33.4492 3.9375 33.3164 4.16016C33.1875 4.37891 33.0938 4.62305 33.0352 4.89258C32.9805 5.1582 32.9531 5.42969 32.9531 5.70703V5.95312C32.9531 6.23047 32.9805 6.50391 33.0352 6.77344C33.0898 7.04297 33.1816 7.28711 33.3105 7.50586C33.4434 7.72461 33.6211 7.90039 33.8438 8.0332C34.0703 8.16211 34.3516 8.22656 34.6875 8.22656ZM38.1445 5.90039V5.76562C38.1445 5.30859 38.2109 4.88477 38.3438 4.49414C38.4766 4.09961 38.668 3.75781 38.918 3.46875C39.168 3.17578 39.4707 2.94922 39.8262 2.78906C40.1816 2.625 40.5801 2.54297 41.0215 2.54297C41.4668 2.54297 41.8672 2.625 42.2227 2.78906C42.582 2.94922 42.8867 3.17578 43.1367 3.46875C43.3906 3.75781 43.584 4.09961 43.7168 4.49414C43.8496 4.88477 43.916 5.30859 43.916 5.76562V5.90039C43.916 6.35742 43.8496 6.78125 43.7168 7.17188C43.584 7.5625 43.3906 7.9043 43.1367 8.19727C42.8867 8.48633 42.584 8.71289 42.2285 8.87695C41.877 9.03711 41.4785 9.11719 41.0332 9.11719C40.5879 9.11719 40.1875 9.03711 39.832 8.87695C39.4766 8.71289 39.1719 8.48633 38.918 8.19727C38.668 7.9043 38.4766 7.5625 38.3438 7.17188C38.2109 6.78125 38.1445 6.35742 38.1445 5.90039ZM39.2285 5.76562V5.90039C39.2285 6.2168 39.2656 6.51562 39.3398 6.79688C39.4141 7.07422 39.5254 7.32031 39.6738 7.53516C39.8262 7.75 40.0156 7.91992 40.2422 8.04492C40.4688 8.16602 40.7324 8.22656 41.0332 8.22656C41.3301 8.22656 41.5898 8.16602 41.8125 8.04492C42.0391 7.91992 42.2266 7.75 42.375 7.53516C42.5234 7.32031 42.6348 7.07422 42.709 6.79688C42.7871 6.51562 42.8262 6.2168 42.8262 5.90039V5.76562C42.8262 5.45312 42.7871 5.1582 42.709 4.88086C42.6348 4.59961 42.5215 4.35156 42.3691 4.13672C42.2207 3.91797 42.0332 3.74609 41.8066 3.62109C41.584 3.49609 41.3223 3.43359 41.0215 3.43359C40.7246 3.43359 40.4629 3.49609 40.2363 3.62109C40.0137 3.74609 39.8262 3.91797 39.6738 4.13672C39.5254 4.35156 39.4141 4.59961 39.3398 4.88086C39.2656 5.1582 39.2285 5.45312 39.2285 5.76562ZM46.3535 3.91992V9H45.2637V2.66016H46.2949L46.3535 3.91992ZM46.1309 5.58984L45.627 5.57227C45.6309 5.13867 45.6875 4.73828 45.7969 4.37109C45.9062 4 46.0684 3.67773 46.2832 3.4043C46.498 3.13086 46.7656 2.91992 47.0859 2.77148C47.4062 2.61914 47.7773 2.54297 48.1992 2.54297C48.4961 2.54297 48.7695 2.58594 49.0195 2.67188C49.2695 2.75391 49.4863 2.88477 49.6699 3.06445C49.8535 3.24414 49.9961 3.47461 50.0977 3.75586C50.1992 4.03711 50.25 4.37695 50.25 4.77539V9H49.166V4.82812C49.166 4.49609 49.1094 4.23047 48.9961 4.03125C48.8867 3.83203 48.7305 3.6875 48.5273 3.59766C48.3242 3.50391 48.0859 3.45703 47.8125 3.45703C47.4922 3.45703 47.2246 3.51367 47.0098 3.62695C46.7949 3.74023 46.623 3.89648 46.4941 4.0957C46.3652 4.29492 46.2715 4.52344 46.2129 4.78125C46.1582 5.03516 46.1309 5.30469 46.1309 5.58984ZM50.2383 4.99219L49.5117 5.21484C49.5156 4.86719 49.5723 4.5332 49.6816 4.21289C49.7949 3.89258 49.957 3.60742 50.168 3.35742C50.3828 3.10742 50.6465 2.91016 50.959 2.76562C51.2715 2.61719 51.6289 2.54297 52.0312 2.54297C52.3711 2.54297 52.6719 2.58789 52.9336 2.67773C53.1992 2.76758 53.4219 2.90625 53.6016 3.09375C53.7852 3.27734 53.9238 3.51367 54.0176 3.80273C54.1113 4.0918 54.1582 4.43555 54.1582 4.83398V9H53.0684V4.82227C53.0684 4.4668 53.0117 4.19141 52.8984 3.99609C52.7891 3.79688 52.6328 3.6582 52.4297 3.58008C52.2305 3.49805 51.9922 3.45703 51.7148 3.45703C51.4766 3.45703 51.2656 3.49805 51.082 3.58008C50.8984 3.66211 50.7441 3.77539 50.6191 3.91992C50.4941 4.06055 50.3984 4.22266 50.332 4.40625C50.2695 4.58984 50.2383 4.78516 50.2383 4.99219ZM58.4297 9.11719C57.9883 9.11719 57.5879 9.04297 57.2285 8.89453C56.873 8.74219 56.5664 8.5293 56.3086 8.25586C56.0547 7.98242 55.8594 7.6582 55.7227 7.2832C55.5859 6.9082 55.5176 6.49805 55.5176 6.05273V5.80664C55.5176 5.29102 55.5938 4.83203 55.7461 4.42969C55.8984 4.02344 56.1055 3.67969 56.3672 3.39844C56.6289 3.11719 56.9258 2.9043 57.2578 2.75977C57.5898 2.61523 57.9336 2.54297 58.2891 2.54297C58.7422 2.54297 59.1328 2.62109 59.4609 2.77734C59.793 2.93359 60.0645 3.15234 60.2754 3.43359C60.4863 3.71094 60.6426 4.03906 60.7441 4.41797C60.8457 4.79297 60.8965 5.20312 60.8965 5.64844V6.13477H56.1621V5.25H59.8125V5.16797C59.7969 4.88672 59.7383 4.61328 59.6367 4.34766C59.5391 4.08203 59.3828 3.86328 59.168 3.69141C58.9531 3.51953 58.6602 3.43359 58.2891 3.43359C58.043 3.43359 57.8164 3.48633 57.6094 3.5918C57.4023 3.69336 57.2246 3.8457 57.0762 4.04883C56.9277 4.25195 56.8125 4.5 56.7305 4.79297C56.6484 5.08594 56.6074 5.42383 56.6074 5.80664V6.05273C56.6074 6.35352 56.6484 6.63672 56.7305 6.90234C56.8164 7.16406 56.9395 7.39453 57.0996 7.59375C57.2637 7.79297 57.4609 7.94922 57.6914 8.0625C57.9258 8.17578 58.1914 8.23242 58.4883 8.23242C58.8711 8.23242 59.1953 8.1543 59.4609 7.99805C59.7266 7.8418 59.959 7.63281 60.1582 7.37109L60.8145 7.89258C60.6777 8.09961 60.5039 8.29688 60.293 8.48438C60.082 8.67188 59.8223 8.82422 59.5137 8.94141C59.209 9.05859 58.8477 9.11719 58.4297 9.11719ZM68.2207 0.46875V9H67.1074V0.46875H68.2207ZM70.9629 0.46875V1.39453H64.3711V0.46875H70.9629ZM71.1914 5.90039V5.76562C71.1914 5.30859 71.2578 4.88477 71.3906 4.49414C71.5234 4.09961 71.7148 3.75781 71.9648 3.46875C72.2148 3.17578 72.5176 2.94922 72.873 2.78906C73.2285 2.625 73.627 2.54297 74.0684 2.54297C74.5137 2.54297 74.9141 2.625 75.2695 2.78906C75.6289 2.94922 75.9336 3.17578 76.1836 3.46875C76.4375 3.75781 76.6309 4.09961 76.7637 4.49414C76.8965 4.88477 76.9629 5.30859 76.9629 5.76562V5.90039C76.9629 6.35742 76.8965 6.78125 76.7637 7.17188C76.6309 7.5625 76.4375 7.9043 76.1836 8.19727C75.9336 8.48633 75.6309 8.71289 75.2754 8.87695C74.9238 9.03711 74.5254 9.11719 74.0801 9.11719C73.6348 9.11719 73.2344 9.03711 72.8789 8.87695C72.5234 8.71289 72.2188 8.48633 71.9648 8.19727C71.7148 7.9043 71.5234 7.5625 71.3906 7.17188C71.2578 6.78125 71.1914 6.35742 71.1914 5.90039ZM72.2754 5.76562V5.90039C72.2754 6.2168 72.3125 6.51562 72.3867 6.79688C72.4609 7.07422 72.5723 7.32031 72.7207 7.53516C72.873 7.75 73.0625 7.91992 73.2891 8.04492C73.5156 8.16602 73.7793 8.22656 74.0801 8.22656C74.377 8.22656 74.6367 8.16602 74.8594 8.04492C75.0859 7.91992 75.2734 7.75 75.4219 7.53516C75.5703 7.32031 75.6816 7.07422 75.7559 6.79688C75.834 6.51562 75.873 6.2168 75.873 5.90039V5.76562C75.873 5.45312 75.834 5.1582 75.7559 4.88086C75.6816 4.59961 75.5684 4.35156 75.416 4.13672C75.2676 3.91797 75.0801 3.74609 74.8535 3.62109C74.6309 3.49609 74.3691 3.43359 74.0684 3.43359C73.7715 3.43359 73.5098 3.49609 73.2832 3.62109C73.0605 3.74609 72.873 3.91797 72.7207 4.13672C72.5723 4.35156 72.4609 4.59961 72.3867 4.88086C72.3125 5.1582 72.2754 5.45312 72.2754 5.76562ZM4.59961 14.4688L1.04297 23.7324H0.111328L3.67383 14.4688H4.59961ZM8.24414 14.4688L4.6875 23.7324H3.75586L7.31836 14.4688H8.24414ZM15.2812 13.6426L15.5098 14.3105C15.0449 14.4551 14.7246 14.7148 14.5488 15.0898C14.373 15.4609 14.2852 15.8867 14.2852 16.3672V17.5801C14.2852 17.9707 14.2051 18.3262 14.0449 18.6465C13.8887 18.9629 13.6387 19.2148 13.2949 19.4023C12.9551 19.5898 12.5078 19.6836 11.9531 19.6836V18.9688C12.3945 18.9688 12.7109 18.8438 12.9023 18.5938C13.0977 18.3438 13.1953 18.0059 13.1953 17.5801V16.3672C13.1953 15.957 13.2578 15.5742 13.3828 15.2188C13.5117 14.8594 13.7266 14.5449 14.0273 14.2754C14.332 14.002 14.75 13.791 15.2812 13.6426ZM15.5098 24.4707L15.2812 25.1445C14.75 24.9922 14.332 24.7812 14.0273 24.5117C13.7266 24.2422 13.5117 23.9277 13.3828 23.5684C13.2578 23.2129 13.1953 22.8301 13.1953 22.4199V21.2129C13.1953 20.9277 13.1523 20.6816 13.0664 20.4746C12.9805 20.2676 12.8457 20.1074 12.6621 19.9941C12.4824 19.877 12.2461 19.8184 11.9531 19.8184V19.1035C12.5078 19.1035 12.9551 19.1973 13.2949 19.3848C13.6387 19.5723 13.8887 19.8262 14.0449 20.1465C14.2051 20.4629 14.2852 20.8184 14.2852 21.2129V22.4199C14.2852 22.7402 14.3223 23.0371 14.3965 23.3105C14.4746 23.584 14.6016 23.8203 14.7773 24.0195C14.957 24.2227 15.2012 24.373 15.5098 24.4707ZM19.7871 14.4688V23H18.6738V14.4688H19.7871ZM22.5293 14.4688V15.3945H15.9375V14.4688H22.5293ZM25.6758 23.1172C25.2344 23.1172 24.834 23.043 24.4746 22.8945C24.1191 22.7422 23.8125 22.5293 23.5547 22.2559C23.3008 21.9824 23.1055 21.6582 22.9688 21.2832C22.832 20.9082 22.7637 20.498 22.7637 20.0527V19.8066C22.7637 19.291 22.8398 18.832 22.9922 18.4297C23.1445 18.0234 23.3516 17.6797 23.6133 17.3984C23.875 17.1172 24.1719 16.9043 24.5039 16.7598C24.8359 16.6152 25.1797 16.543 25.5352 16.543C25.9883 16.543 26.3789 16.6211 26.707 16.7773C27.0391 16.9336 27.3105 17.1523 27.5215 17.4336C27.7324 17.7109 27.8887 18.0391 27.9902 18.418C28.0918 18.793 28.1426 19.2031 28.1426 19.6484V20.1348H23.4082V19.25H27.0586V19.168C27.043 18.8867 26.9844 18.6133 26.8828 18.3477C26.7852 18.082 26.6289 17.8633 26.4141 17.6914C26.1992 17.5195 25.9062 17.4336 25.5352 17.4336C25.2891 17.4336 25.0625 17.4863 24.8555 17.5918C24.6484 17.6934 24.4707 17.8457 24.3223 18.0488C24.1738 18.252 24.0586 18.5 23.9766 18.793C23.8945 19.0859 23.8535 19.4238 23.8535 19.8066V20.0527C23.8535 20.3535 23.8945 20.6367 23.9766 20.9023C24.0625 21.1641 24.1855 21.3945 24.3457 21.5938C24.5098 21.793 24.707 21.9492 24.9375 22.0625C25.1719 22.1758 25.4375 22.2324 25.7344 22.2324C26.1172 22.2324 26.4414 22.1543 26.707 21.998C26.9727 21.8418 27.2051 21.6328 27.4043 21.3711L28.0605 21.8926C27.9238 22.0996 27.75 22.2969 27.5391 22.4844C27.3281 22.6719 27.0684 22.8242 26.7598 22.9414C26.4551 23.0586 26.0938 23.1172 25.6758 23.1172ZM31.9453 22.2266C32.2031 22.2266 32.4414 22.1738 32.6602 22.0684C32.8789 21.9629 33.0586 21.8184 33.1992 21.6348C33.3398 21.4473 33.4199 21.2344 33.4395 20.9961H34.4707C34.4512 21.3711 34.3242 21.7207 34.0898 22.0449C33.8594 22.3652 33.5566 22.625 33.1816 22.8242C32.8066 23.0195 32.3945 23.1172 31.9453 23.1172C31.4688 23.1172 31.0527 23.0332 30.6973 22.8652C30.3457 22.6973 30.0527 22.4668 29.8184 22.1738C29.5879 21.8809 29.4141 21.5449 29.2969 21.166C29.1836 20.7832 29.127 20.3789 29.127 19.9531V19.707C29.127 19.2812 29.1836 18.8789 29.2969 18.5C29.4141 18.1172 29.5879 17.7793 29.8184 17.4863C30.0527 17.1934 30.3457 16.9629 30.6973 16.7949C31.0527 16.627 31.4688 16.543 31.9453 16.543C32.4414 16.543 32.875 16.6445 33.2461 16.8477C33.6172 17.0469 33.9082 17.3203 34.1191 17.668C34.334 18.0117 34.4512 18.4023 34.4707 18.8398H33.4395C33.4199 18.5781 33.3457 18.3418 33.2168 18.1309C33.0918 17.9199 32.9199 17.752 32.7012 17.627C32.4863 17.498 32.2344 17.4336 31.9453 17.4336C31.6133 17.4336 31.334 17.5 31.1074 17.6328C30.8848 17.7617 30.707 17.9375 30.5742 18.1602C30.4453 18.3789 30.3516 18.623 30.293 18.8926C30.2383 19.1582 30.2109 19.4297 30.2109 19.707V19.9531C30.2109 20.2305 30.2383 20.5039 30.293 20.7734C30.3477 21.043 30.4395 21.2871 30.5684 21.5059C30.7012 21.7246 30.8789 21.9004 31.1016 22.0332C31.3281 22.1621 31.6094 22.2266 31.9453 22.2266ZM36.7734 14V23H35.6895V14H36.7734ZM36.5156 19.5898L36.0645 19.5723C36.0684 19.1387 36.1328 18.7383 36.2578 18.3711C36.3828 18 36.5586 17.6777 36.7852 17.4043C37.0117 17.1309 37.2812 16.9199 37.5938 16.7715C37.9102 16.6191 38.2598 16.543 38.6426 16.543C38.9551 16.543 39.2363 16.5859 39.4863 16.6719C39.7363 16.7539 39.9492 16.8867 40.125 17.0703C40.3047 17.2539 40.4414 17.4922 40.5352 17.7852C40.6289 18.0742 40.6758 18.4277 40.6758 18.8457V23H39.5859V18.834C39.5859 18.502 39.5371 18.2363 39.4395 18.0371C39.3418 17.834 39.1992 17.6875 39.0117 17.5977C38.8242 17.5039 38.5938 17.457 38.3203 17.457C38.0508 17.457 37.8047 17.5137 37.582 17.627C37.3633 17.7402 37.1738 17.8965 37.0137 18.0957C36.8574 18.2949 36.7344 18.5234 36.6445 18.7812C36.5586 19.0352 36.5156 19.3047 36.5156 19.5898ZM45.6094 19.6543H43.3301V18.7344H45.6094C46.0508 18.7344 46.4082 18.6641 46.6816 18.5234C46.9551 18.3828 47.1543 18.1875 47.2793 17.9375C47.4082 17.6875 47.4727 17.4023 47.4727 17.082C47.4727 16.7891 47.4082 16.5137 47.2793 16.2559C47.1543 15.998 46.9551 15.791 46.6816 15.6348C46.4082 15.4746 46.0508 15.3945 45.6094 15.3945H43.5938V23H42.4629V14.4688H45.6094C46.2539 14.4688 46.7988 14.5801 47.2441 14.8027C47.6895 15.0254 48.0273 15.334 48.2578 15.7285C48.4883 16.1191 48.6035 16.5664 48.6035 17.0703C48.6035 17.6172 48.4883 18.084 48.2578 18.4707C48.0273 18.8574 47.6895 19.1523 47.2441 19.3555C46.7988 19.5547 46.2539 19.6543 45.6094 19.6543ZM49.5 19.9004V19.7656C49.5 19.3086 49.5664 18.8848 49.6992 18.4941C49.832 18.0996 50.0234 17.7578 50.2734 17.4688C50.5234 17.1758 50.8262 16.9492 51.1816 16.7891C51.5371 16.625 51.9355 16.543 52.377 16.543C52.8223 16.543 53.2227 16.625 53.5781 16.7891C53.9375 16.9492 54.2422 17.1758 54.4922 17.4688C54.7461 17.7578 54.9395 18.0996 55.0723 18.4941C55.2051 18.8848 55.2715 19.3086 55.2715 19.7656V19.9004C55.2715 20.3574 55.2051 20.7812 55.0723 21.1719C54.9395 21.5625 54.7461 21.9043 54.4922 22.1973C54.2422 22.4863 53.9395 22.7129 53.584 22.877C53.2324 23.0371 52.834 23.1172 52.3887 23.1172C51.9434 23.1172 51.543 23.0371 51.1875 22.877C50.832 22.7129 50.5273 22.4863 50.2734 22.1973C50.0234 21.9043 49.832 21.5625 49.6992 21.1719C49.5664 20.7812 49.5 20.3574 49.5 19.9004ZM50.584 19.7656V19.9004C50.584 20.2168 50.6211 20.5156 50.6953 20.7969C50.7695 21.0742 50.8809 21.3203 51.0293 21.5352C51.1816 21.75 51.3711 21.9199 51.5977 22.0449C51.8242 22.166 52.0879 22.2266 52.3887 22.2266C52.6855 22.2266 52.9453 22.166 53.168 22.0449C53.3945 21.9199 53.582 21.75 53.7305 21.5352C53.8789 21.3203 53.9902 21.0742 54.0645 20.7969C54.1426 20.5156 54.1816 20.2168 54.1816 19.9004V19.7656C54.1816 19.4531 54.1426 19.1582 54.0645 18.8809C53.9902 18.5996 53.877 18.3516 53.7246 18.1367C53.5762 17.918 53.3887 17.7461 53.1621 17.6211C52.9395 17.4961 52.6777 17.4336 52.377 17.4336C52.0801 17.4336 51.8184 17.4961 51.5918 17.6211C51.3691 17.7461 51.1816 17.918 51.0293 18.1367C50.8809 18.3516 50.7695 18.5996 50.6953 18.8809C50.6211 19.1582 50.584 19.4531 50.584 19.7656ZM57.7148 17.6562V23H56.6309V16.6602H57.6855L57.7148 17.6562ZM59.6953 16.625L59.6895 17.6328C59.5996 17.6133 59.5137 17.6016 59.4316 17.5977C59.3535 17.5898 59.2637 17.5859 59.1621 17.5859C58.9121 17.5859 58.6914 17.625 58.5 17.7031C58.3086 17.7812 58.1465 17.8906 58.0137 18.0312C57.8809 18.1719 57.7754 18.3398 57.6973 18.5352C57.623 18.7266 57.5742 18.9375 57.5508 19.168L57.2461 19.3438C57.2461 18.9609 57.2832 18.6016 57.3574 18.2656C57.4355 17.9297 57.5547 17.6328 57.7148 17.375C57.875 17.1133 58.0781 16.9102 58.3242 16.7656C58.5742 16.6172 58.8711 16.543 59.2148 16.543C59.293 16.543 59.3828 16.5527 59.4844 16.5723C59.5859 16.5879 59.6562 16.6055 59.6953 16.625ZM61.7812 18.0137V23H60.6973V16.6602H61.7227L61.7812 18.0137ZM61.5234 19.5898L61.0723 19.5723C61.0762 19.1387 61.1406 18.7383 61.2656 18.3711C61.3906 18 61.5664 17.6777 61.793 17.4043C62.0195 17.1309 62.2891 16.9199 62.6016 16.7715C62.918 16.6191 63.2676 16.543 63.6504 16.543C63.9629 16.543 64.2441 16.5859 64.4941 16.6719C64.7441 16.7539 64.957 16.8867 65.1328 17.0703C65.3125 17.2539 65.4492 17.4922 65.543 17.7852C65.6367 18.0742 65.6836 18.4277 65.6836 18.8457V23H64.5938V18.834C64.5938 18.502 64.5449 18.2363 64.4473 18.0371C64.3496 17.834 64.207 17.6875 64.0195 17.5977C63.832 17.5039 63.6016 17.457 63.3281 17.457C63.0586 17.457 62.8125 17.5137 62.5898 17.627C62.3711 17.7402 62.1816 17.8965 62.0215 18.0957C61.8652 18.2949 61.7422 18.5234 61.6523 18.7812C61.5664 19.0352 61.5234 19.3047 61.5234 19.5898ZM66.6211 14.3105L66.8496 13.6426C67.3848 13.791 67.8027 14.002 68.1035 14.2754C68.4082 14.5449 68.623 14.8594 68.748 15.2188C68.873 15.5742 68.9355 15.957 68.9355 16.3672V17.5801C68.9355 17.8613 68.9785 18.1074 69.0645 18.3184C69.1504 18.5254 69.2832 18.6855 69.4629 18.7988C69.6465 18.9121 69.8848 18.9688 70.1777 18.9688V19.6309C69.627 19.6309 69.1797 19.543 68.8359 19.3672C68.4922 19.1875 68.2402 18.9434 68.0801 18.6348C67.9238 18.3223 67.8457 17.9707 67.8457 17.5801V16.3672C67.8457 16.0469 67.8086 15.75 67.7344 15.4766C67.6602 15.1992 67.5332 14.9609 67.3535 14.7617C67.1777 14.5586 66.9336 14.4082 66.6211 14.3105ZM66.8496 25.1445L66.6211 24.4707C66.9297 24.373 67.1719 24.2227 67.3477 24.0195C67.5273 23.8203 67.6543 23.584 67.7285 23.3105C67.8066 23.0371 67.8457 22.7402 67.8457 22.4199V21.2129C67.8457 20.8184 67.9238 20.4668 68.0801 20.1582C68.2402 19.8496 68.4922 19.6074 68.8359 19.4316C69.1797 19.252 69.627 19.1621 70.1777 19.1621V19.8184C69.7402 19.8184 69.4238 19.9453 69.2285 20.1992C69.0332 20.4492 68.9355 20.7871 68.9355 21.2129V22.4199C68.9355 22.8301 68.873 23.2129 68.748 23.5684C68.623 23.9277 68.4082 24.2422 68.1035 24.5117C67.8027 24.7812 67.3848 24.9922 66.8496 25.1445ZM4.59961 28.4688L1.04297 37.7324H0.111328L3.67383 28.4688H4.59961ZM8.24414 28.4688L4.6875 37.7324H3.75586L7.31836 28.4688H8.24414ZM15.2812 27.6426L15.5098 28.3105C15.0449 28.4551 14.7246 28.7148 14.5488 29.0898C14.373 29.4609 14.2852 29.8867 14.2852 30.3672V31.5801C14.2852 31.9707 14.2051 32.3262 14.0449 32.6465C13.8887 32.9629 13.6387 33.2148 13.2949 33.4023C12.9551 33.5898 12.5078 33.6836 11.9531 33.6836V32.9688C12.3945 32.9688 12.7109 32.8438 12.9023 32.5938C13.0977 32.3438 13.1953 32.0059 13.1953 31.5801V30.3672C13.1953 29.957 13.2578 29.5742 13.3828 29.2188C13.5117 28.8594 13.7266 28.5449 14.0273 28.2754C14.332 28.002 14.75 27.791 15.2812 27.6426ZM15.5098 38.4707L15.2812 39.1445C14.75 38.9922 14.332 38.7812 14.0273 38.5117C13.7266 38.2422 13.5117 37.9277 13.3828 37.5684C13.2578 37.2129 13.1953 36.8301 13.1953 36.4199V35.2129C13.1953 34.9277 13.1523 34.6816 13.0664 34.4746C12.9805 34.2676 12.8457 34.1074 12.6621 33.9941C12.4824 33.877 12.2461 33.8184 11.9531 33.8184V33.1035C12.5078 33.1035 12.9551 33.1973 13.2949 33.3848C13.6387 33.5723 13.8887 33.8262 14.0449 34.1465C14.2051 34.4629 14.2852 34.8184 14.2852 35.2129V36.4199C14.2852 36.7402 14.3223 37.0371 14.3965 37.3105C14.4746 37.584 14.6016 37.8203 14.7773 38.0195C14.957 38.2227 15.2012 38.373 15.5098 38.4707ZM23.3725 32.584V37.384H24.2605V32.584H23.3725ZM20.7325 32.26V33.052H26.9365V32.26H20.7325ZM20.2165 36.844V37.648H27.2005V36.844H20.2165ZM21.0205 34.492V35.272H26.6605V34.492H21.0205ZM22.0285 28.204H25.6405V30.424H22.0285V28.204ZM21.1885 27.424V31.204H26.5165V27.424H21.1885ZM18.1885 27.916V37.936H19.0645V27.916H18.1885ZM16.2205 30.304V31.156H20.5765V30.304H16.2205ZM18.2365 30.628C17.8045 32.116 16.8445 33.988 15.9805 34.948C16.1365 35.152 16.3525 35.524 16.4365 35.776C17.3605 34.66 18.3205 32.56 18.8005 30.868L18.2365 30.628ZM19.9645 27.1C19.0885 27.508 17.5045 27.844 16.1485 28.072C16.2565 28.276 16.3765 28.564 16.4245 28.768C17.8165 28.576 19.4965 28.24 20.6005 27.796L19.9645 27.1ZM19.0285 31.852L18.6085 32.212C18.9805 32.632 19.8805 33.772 20.1685 34.264L20.6965 33.556C20.4565 33.256 19.3285 32.116 19.0285 31.852ZM33.0205 27.292C32.9365 28.888 32.9365 34.66 28.0405 37.156C28.3165 37.36 28.6165 37.636 28.7725 37.864C33.7405 35.164 33.9205 29.176 34.0165 27.292H33.0205ZM33.9805 27.532L33.1165 27.616C33.2005 28.72 33.5365 35.428 38.6245 37.864C38.7685 37.612 39.0445 37.312 39.3085 37.108C34.3645 34.84 34.0165 28.468 33.9805 27.532ZM43.1485 28.432V29.2H45.4285V28.432H43.1485ZM40.1245 30.544V31.36H45.7285V30.544H40.1245ZM42.7165 26.98V30.952H43.5205V26.98H42.7165ZM40.9765 27.868V31.084H41.7205V27.868H40.9765ZM44.4925 33.736C43.8565 35.548 42.4405 36.712 40.2685 37.276C40.4725 37.468 40.6885 37.768 40.7725 38.008C43.0885 37.3 44.5885 36.004 45.2725 33.976L44.4925 33.736ZM44.1805 32.056C44.5525 32.668 44.9245 33.508 45.0685 34.024L45.8005 33.724C45.6445 33.22 45.2485 32.416 44.8765 31.816L44.1805 32.056ZM42.7165 31.12V34.252C42.7165 34.36 42.6805 34.384 42.5605 34.396C42.4525 34.408 42.0805 34.408 41.6725 34.396C41.7685 34.612 41.8765 34.912 41.9005 35.128C42.5005 35.128 42.9085 35.128 43.1725 35.008C43.4605 34.876 43.5205 34.66 43.5205 34.264V31.12H42.7165ZM41.1805 31.84C40.9525 32.692 40.5565 33.568 40.0645 34.156C40.2685 34.24 40.6165 34.444 40.7845 34.564C41.2645 33.94 41.7205 32.968 41.9725 32.02L41.1805 31.84ZM45.6325 27.484V28.264H51.0925V27.484H45.6325ZM46.8085 31.972H50.0005V33.124H46.8085V31.972ZM46.8085 33.808H50.0005V34.984H46.8085V33.808ZM46.8085 30.136H50.0005V31.288H46.8085V30.136ZM46.0045 29.428V35.692H50.8165V29.428H46.0045ZM47.9605 27.868C47.8885 28.42 47.7085 29.236 47.5765 29.764L48.3205 29.92C48.5125 29.416 48.7165 28.672 48.9085 27.988L47.9605 27.868ZM47.0845 35.896C46.6285 36.424 45.6565 37.06 44.7805 37.408C44.9845 37.564 45.2605 37.816 45.3925 37.996C46.2565 37.624 47.2645 36.976 47.8765 36.352L47.0845 35.896ZM48.7645 36.4C49.4245 36.868 50.2525 37.54 50.6485 37.984L51.3445 37.492C50.9365 37.036 50.0965 36.388 49.4485 35.956L48.7645 36.4ZM55.3765 28.456V29.212H63.0085V28.456H55.3765ZM58.6525 28.792C58.5925 29.26 58.4365 29.968 58.3165 30.436L59.0605 30.58C59.2405 30.148 59.4685 29.488 59.6605 28.876L58.6525 28.792ZM60.7405 26.92C60.5485 27.376 60.1765 28.048 59.8885 28.48L60.6445 28.684C60.9565 28.288 61.3165 27.7 61.6525 27.148L60.7405 26.92ZM56.6485 27.232C57.0085 27.652 57.3685 28.24 57.5005 28.636L58.2325 28.312C58.1005 27.916 57.7285 27.352 57.3565 26.956L56.6485 27.232ZM54.7765 31.66H52.2205V32.5H53.9005V35.908H54.7765V31.66ZM54.7765 35.512H53.9605C53.3485 36.028 52.6405 36.556 52.0645 36.94L52.5445 37.864C53.1925 37.336 53.8045 36.82 54.3805 36.304C55.1485 37.252 56.2285 37.672 57.7885 37.732C59.1205 37.78 61.6045 37.756 62.9245 37.708C62.9605 37.432 63.1165 37 63.2125 36.784C61.7965 36.88 59.0965 36.916 57.7885 36.868C56.4085 36.808 55.3405 36.4 54.7765 35.512ZM52.3525 27.76C53.1325 28.288 54.0325 29.104 54.4165 29.68L55.1245 29.092C54.7045 28.504 53.8045 27.724 53.0125 27.22L52.3525 27.76ZM57.1765 32.512H61.1725V33.508H57.1765V32.512ZM57.1765 34.168H61.1725V35.176H57.1765V34.168ZM57.1765 30.856H61.1725V31.852H57.1765V30.856ZM56.3245 30.16V35.872H62.0605V30.16H56.3245ZM63.7617 28.3105L63.9902 27.6426C64.5254 27.791 64.9434 28.002 65.2441 28.2754C65.5488 28.5449 65.7637 28.8594 65.8887 29.2188C66.0137 29.5742 66.0762 29.957 66.0762 30.3672V31.5801C66.0762 31.8613 66.1191 32.1074 66.2051 32.3184C66.291 32.5254 66.4238 32.6855 66.6035 32.7988C66.7871 32.9121 67.0254 32.9688 67.3184 32.9688V33.6309C66.7676 33.6309 66.3203 33.543 65.9766 33.3672C65.6328 33.1875 65.3809 32.9434 65.2207 32.6348C65.0645 32.3223 64.9863 31.9707 64.9863 31.5801V30.3672C64.9863 30.0469 64.9492 29.75 64.875 29.4766C64.8008 29.1992 64.6738 28.9609 64.4941 28.7617C64.3184 28.5586 64.0742 28.4082 63.7617 28.3105ZM63.9902 39.1445L63.7617 38.4707C64.0703 38.373 64.3125 38.2227 64.4883 38.0195C64.668 37.8203 64.7949 37.584 64.8691 37.3105C64.9473 37.0371 64.9863 36.7402 64.9863 36.4199V35.2129C64.9863 34.8184 65.0645 34.4668 65.2207 34.1582C65.3809 33.8496 65.6328 33.6074 65.9766 33.4316C66.3203 33.252 66.7676 33.1621 67.3184 33.1621V33.8184C66.8809 33.8184 66.5645 33.9453 66.3691 34.1992C66.1738 34.4492 66.0762 34.7871 66.0762 35.2129V36.4199C66.0762 36.8301 66.0137 37.2129 65.8887 37.5684C65.7637 37.9277 65.5488 38.2422 65.2441 38.5117C64.9434 38.7812 64.5254 38.9922 63.9902 39.1445Z" fill="#83D85B"/>
</svg>
